<?xml version="1.0" encoding="utf-8"?>
<!-- Generator: Adobe Illustrator 22.0.1, SVG Export Plug-In . SVG Version: 6.00 Build 0)  -->
<svg version="1.1" id="Layer_1" xmlns="http://www.w3.org/2000/svg" xmlns:xlink="http://www.w3.org/1999/xlink" x="0px" y="0px"
	 viewBox="0 0 720 720" style="enable-background:new 0 0 720 720;" xml:space="preserve">
<style type="text/css">
	.st0{fill:#FFFFFF;}
	.st1{fill:#0C234B;}
	.st2{fill:#AB0520;}
	.st3{fill:#7D2248;}
	.st4{fill:#FFC72C;}
	.st5{fill:#0051BA;}
	.st6{fill:#E8000D;}
	.st7{fill:#FFC82D;}
	.st8{fill:#330A57;}
	.st9{fill:#002855;}
	.st10{fill:#BE0000;}
	.st11{fill:#CCCCCC;}
	.st12{fill:#E90802;}
	.st13{fill:#4D1979;}
	.st14{fill:#FE5C00;}
	.st15{fill:#FDC82F;}
	.st16{fill:#A71930;}
	.st17{fill:#822433;}
	.st18{fill:#FADA63;}
	.st19{fill:#C92A39;}
	.st20{fill:#CFB87C;}
	.st21{fill:#E00122;}
	.st22{fill:#B7A369;}
	.st23{fill:#213C84;}
	.st24{fill:#154734;}
</style>
<g>
	<path class="st23" d="M360.0031738,159.0907288C181.043396,159.0907288,36,249.0299988,36,359.9889221
		c0,110.9707947,145.043396,200.9203186,324.0031738,200.9203186C538.9403687,560.9092407,684,470.9597168,684,359.9889221
		C684,249.0299988,538.9403687,159.0907288,360.0031738,159.0907288z M550.3341675,307.9986267
		c-9.2247925-9.2264099-33.3440552-23.778717-33.3440552-23.778717L407.4973145,412.4712219l-0.5576477,57.9324036
		l41.8830872-4.6772766c0,0,5.7415771,21.5892029,9.4118958,43.7099609
		c-110.1335144,22.1452332-192.5521851-0.8234558-192.5521851-0.8234558l8.2463379-42.184082l38.8186951,3.9526978v-59.3237915
		c0,0-85.2489471-99.9875183-111.5826416-132.0695496c-16.4784393,7.066925-34.1362762,20.7088013-34.1362762,20.7088013
		l-26.222168-33.2123718c68.1590424-59.9953766,188.3653412-65.5498962,188.3653412-65.5498962
		s1.6903992,21.3139191,2.9362488,45.8891907c-19.6713867,1.9427338-41.248291,5.2792358-41.248291,5.2792358
		l92.5456543,107.6469421l80.4961243-95.9335632l-35.5213623-7.798645c0,0,3.9954224-26.342392,7.01474-46.3455963
		c88.07724,8.4227295,143.790802,62.9482269,143.790802,62.9482269S561.7572632,294.22229,550.3341675,307.9986267z"/>
	<path class="st0" d="M435.3948669,209.672226c-3.0193176,20.0032043-7.01474,46.3455963-7.01474,46.3455963l35.5213623,7.798645
		l-80.4961243,95.9335632l-92.5456543-107.6469421c0,0,21.5769043-3.3365021,41.248291-5.2792358
		c-1.2458496-24.5752716-2.9362488-45.8891907-2.9362488-45.8891907s-120.2062988,5.5545197-188.3653412,65.5498962
		l26.222168,33.2123718c0,0,17.6578369-13.6418762,34.1362762-20.7088013
		c26.3336945,32.0820313,111.5826416,132.0695496,111.5826416,132.0695496v59.3237915l-38.8186951-3.9526978l-8.2463379,42.184082
		c0,0,82.4186707,22.968689,192.5521851,0.8234558c-3.6703186-22.1207581-9.4118958-43.7099609-9.4118958-43.7099609
		l-41.8830872,4.6772766l0.5576477-57.9324036l109.4927979-128.2513123c0,0,24.1192627,14.5523071,33.3440552,23.778717
		c11.4230957-13.7763367,28.8515015-35.3781738,28.8515015-35.3781738S523.4721069,218.0949554,435.3948669,209.672226z"/>
</g>
</svg>
