<?xml version="1.0" encoding="utf-8"?>
<!-- Generator: Adobe Illustrator 22.0.1, SVG Export Plug-In . SVG Version: 6.00 Build 0)  -->
<svg version="1.1" id="Layer_1" xmlns="http://www.w3.org/2000/svg" xmlns:xlink="http://www.w3.org/1999/xlink" x="0px" y="0px"
	 viewBox="0 0 720 720" style="enable-background:new 0 0 720 720;" xml:space="preserve">
<style type="text/css">
	.st0{fill:#F56600;}
	.st1{fill:#013088;}
	.st2{fill:#13294B;}
	.st3{fill:#7BAFD4;}
	.st4{fill:#CC0000;}
	.st5{fill:#FFFFFF;}
	.st6{fill:#CEB888;}
	.st7{fill:#FF6A14;}
	.st8{fill:#F84C1E;}
	.st9{fill:#232D4B;}
	.st10{fill:#003A70;}
	.st11{fill:#003057;}
	.st12{fill:#B3A369;}
	.st13{fill:#2C2A29;stroke:#2C2A29;}
	.st14{fill:#782F40;}
	.st15{fill:#005030;}
	.st16{fill:#F47321;}
	.st17{fill:#CF4520;}
	.st18{fill:#6A2C3E;}
	.st19{fill:#FFB81C;}
	.st20{fill:#003594;}
	.st21{fill:#C99700;}
	.st22{fill:#0C2340;}
	.st23{fill:#FDB913;}
	.st24{fill:#C9001F;}
	.st25{fill:#CC0035;}
	.st26{fill:#8C1515;}
	.st27{fill:#041E42;}
	.st28{fill:#DBCCA6;}
	.st29{fill:#8C2232;}
	.st30{fill:#000E54;}
	.st31{fill:#FF431B;}
</style>
<g>
	<path class="st19" d="M229.5084076,178.0080261c-11.0714874-0.0585938-22.281601,0.1954346-27.6499176,0.7869415
		c-16.7667999,1.8482971-37.0967712,6.1416321-52.7203217,11.1340027
		C92.4596329,208.03862,49.0684509,244.3052979,37.9158707,282.888031
		c-0.8280029,2.8672791-1.6528702,6.6476135-1.8284149,8.4003906c-0.7493134,7.4847717,3.3886795,18.2396851,9.6367912,25.0573425
		c12.7450142,13.9099731,32.8010826,17.0231628,46.1904564,7.1682129
		c4.4762039-3.2963257,7.5423126-6.8673706,12.7484207-14.8439636c6.3467407-9.7241516,17.9963837-24.0422363,18.8544769-23.1763
		c0.1569672,0.1595764,0.1203461,1.9856262-0.0811005,4.0576172c-0.2040558,2.0693359-0.0627823,8.7169495,0.3165512,14.7706909
		c1.3682327,21.9362488,3.1236649,56.6288147,5.3892365,106.6022034c1.2740631,28.0344849,2.5664215,55.425415,2.8725128,60.8407898
		s0.7246704,13.6038818,0.9261169,18.2344666c0.6461792,14.8596191,2.7992554,23.0481262,7.9739685,30.2948303
		c3.6625977,5.1276245,5.8941498,6.9327393,12.7301178,10.2290649c7.0112305,3.3748169,12.9367676,5.3892212,20.9238281,7.1159058
		c7.7332916,1.6481934,23.7702026,1.8312988,30.5538177,0.3139038c8.4213409-1.8574829,16.0552216-5.0753174,21.164505-8.8948364
		c2.9013062-2.1713867,7.5109253-9.6011963,9.2532806-14.8858032c1.4938049-4.552063,1.5775146-5.4415588,1.8312836-19.2547302
		c0.2197571-12.0342102-0.0026093-22.8388367-1.2792816-61.9291077l-0.0549469-1.6926575l7.2440643-1.0412292
		c29.8265381-4.2982788,59.4804077-16.4162292,82.1099548-33.5388184l3.9241943-2.9745483l0.183136,15.8354492
		c0.2616272,25.805542-1.2033997,36.4191895-6.5926514,46.8314209
		c-6.3310242,12.2434998-12.0865479,14.5456848-28.5027466,11.3540039
		c-4.2224426-0.8371582-9.1041565-1.5173645-10.8412476-1.5173645c-6.9903259,0-13.3370667,4.1596375-16.6517029,10.8831482
		c-1.8705139,3.7933655-1.904541,4.002655-1.896698,11.6940918c0.0078735,7.4298096,0.1072693,8.0838623,1.8077698,12.2958374
		c5.0543518,12.53125,17.9257507,23.7021484,35.1294556,30.5563965c5.9124451,2.3545532,14.4148865,4.552124,19.3070374,4.9968262
		c11.1185608,1.0464478,26.8938599-3.8195801,39.2681885-12.138855c2.1975403-1.4650269,4.1596375-2.668457,4.3427734-2.668457
		c0.2092896,0.026123,2.0667419,1.4650269,4.1335144,3.2440186c9.8366394,8.3978271,21.0598755,13.9178467,32.8324585,16.1415405
		c6.9850769,1.3342285,19.1762695,0.8371582,26.5537415-1.0726318c10.2029114-2.668457,20.66745-8.5285645,30.2424927-16.9525146
		l3.401001-2.9824219l3.1655273,2.6161499c4.6043701,3.8457031,8.8948364,6.6449585,14.3102417,9.3657837
		c24.9317627,12.53125,52.9505615,7.9006958,74.6644287-12.3220215l4.552124-4.2380981l3.6625366,3.1131592
		c29.6931152,25.1934204,69.6676636,23.7545166,97.921936-3.5056152
		c5.0752563-4.8921204,11.1708984-12.0603638,14.414856-16.8740234
		c9.5488892-14.2579346,11.8771973-29.4838257,6.2786865-41.2825928
		c-6.1740723-12.9760132-20.6151123-17.6850586-33.6173096-10.9354248
		c-3.4533081,1.7789612-7.0112305,5.0752869-15.9584351,14.6503296c-4.6567383,4.9968262-7.4298096,6.8542786-9.2872925,6.2787476
		c-1.5697021-0.4971008-3.2440186-4.0026855-4.6043701-9.6796875c-1.0202637-4.3166504-1.151123-6.8542786-1.151123-25.3608093
		c0-11.3121643,0.1569824-23.4510193,0.366272-26.9828186l0.366272-6.4226074l5.5723877,2.4879456
		c7.8222046,3.5029907,12.0341797,4.4788208,17.8158569,4.1177673c8.4500732-0.5258179,13.5776978-3.9398804,18.1297607-12.1152954
		c7.2467041-13.0047913,8.9995117-31.3857422,4.0026855-41.6122131
		c-3.9241943-7.9975281-23.8853149-25.2221375-36.9136353-31.8383484l-2.5376587-1.2871399l0.3139038-3.2806396
		c0.1831665-1.8051147,0.6540527-10.059021,1.0464478-18.3443298c0.6801758-14.8386841,0.6801758-15.1290894-0.5755615-19.6759338
		c-1.7266235-6.2211609-4.2904663-10.809845-8.1884766-14.7209778c-5.5985107-5.6037598-12.4790039-8.1806488-21.7924194-8.1806488
		c-9.2611084,0-17.9728394,2.2629547-29.1698608,7.5972443c-5.8601685,2.7888184-17.0310059,9.865448-20.510498,13.0048218
		l-1.7004395,1.5121155l0.366272,16.3665466l0.3400879,16.3665161l-5.9124756,1.0307617
		c-3.2440186,0.567688-8.9732666,1.7868042-12.7405396,2.7050781c-3.7672119,0.9182739-7.1159058,1.6638794-7.4559937,1.6638794
		c-0.4185791,0-0.4970703-3.5474854-0.2092896-11.4403687c0.392395-11.8275452-0.2877808-25.821228-1.4389038-28.8533325
		c-2.4067993-6.4775391-10.6737976-12.6228333-20.2750244-15.0793762
		c-5.5200195-1.4153442-15.9060974-0.8790283-22.8650208,1.1798706
		c-12.0342102,3.5553284-25.0364075,11.2990723-34.8468933,20.7616272
		c-5.5723877,5.3630676-5.9909363,5.9281616-5.7293396,7.5920105c0.4185791,2.4330139,3.0608521,32.1235046,3.5579224,39.8908081
		c0.2092896,3.4271545,0.2092896,6.2290344,0,6.2290344c-0.2354431,0-2.2760315-1.0229187-4.5782166-2.2681885
		c-7.6652527-4.1622925-14.1271057-4.4134216-21.2953491-0.8267212c-5.0752869,2.5402832-9.8104858,7.5370789-11.5632935,12.2016602
		c-0.758667,2.0144043-1.3865356,5.3865967-1.5697021,8.4605713c-0.3139038,4.8529358-0.4185791,5.0962219-1.5697021,4.756134
		c-8.7117004-2.5585632-10.1506042-2.7704773-20.4319763-3.0556335l-10.5430298-0.2904053l2.5115051-4.9968262
		c4.7613525-9.5043945,8.4501038-21.1095581,10.255249-32.2307434c0.9941406-6.1348572,0.9941406-26.2136536-0.0261536-33.3112488
		c-3.6887512-26.0409851-15.0166016-48.3095093-33.774292-66.3739166
		c-21.1906738-20.4055786-49.5076904-32.7592163-86.4972229-37.7246399
		c-4.8084412-0.6451416-15.741272-1.0137482-26.8101349-1.0726166L229.5084076,178.0080261z M215.7266235,250.7600861
		c5.7633514,0.0941772,11.2493744,0.389801,13.8681335,0.8476257c26.4857178,4.6174774,48.8536682,23.435318,55.4332581,46.6352081
		c1.7737427,6.2473145,2.1792297,17.4600525,0.8580933,23.534729
		c-2.6841431,12.3586121-11.0924072,22.6609497-23.7885132,29.1568298
		c-5.6534729,2.8908386-13.2742462,5.4232178-20.9342957,6.9589233c-3.236145,0.6488037-6.5037079,1.1798706-7.2623749,1.1798706
		h-1.3787079l-1.0229034-18.9721985c-1.9856567-36.9058228-3.1786041-49.4527893-5.6246948-59.0984802
		c-3.0765839-12.133606-10.171524-20.1834412-23.3463898-26.4987946l-6.278717-3.0137939l3.9582062-0.3740997
		C203.9252472,250.7653351,209.9632721,250.6633148,215.7266235,250.7600861z M546.2750854,379.9212036v18.977417
		c0,10.4383545-0.2615967,21.8682556-0.5755615,25.4000244c-1.3341675,15.0009155-6.7496338,27.6891785-13.7608032,32.1365967
		c-4.0550537,2.5899658-6.0956421,2.3545227-9.3919067-1.0726318c-2.9039307-3.0085449-4.6567383-6.9065857-6.1217651-13.7347107
		c-1.0464478-4.8136597-1.90979-31.0953674-1.5435181-46.9962158l0.2354736-10.5011597l7.3251343-1.2322083
		c6.828125-1.140625,12.3220215-1.8548279,20.510498-2.655365l3.3225098-0.3218079L546.2750854,379.9212036z
		 M410.053009,390.3857117l4.5259094,2.2681885c5.4938965,2.7390747,11.4586792,4.4291077,18.4437561,5.2165833
		c2.8777466,0.3244019,5.4415588,0.5938416,5.703125,0.5938416c0.5755615,0.005249,0.0261536,19.5948486-0.8371582,31.2915955
		c-1.70047,22.5981445-5.7554932,36.7775879-12.1911926,42.5592346c-1.2295837,1.124939-2.6423035,2.0405884-3.1393738,2.0405884
		c-2.3283386,0-6.3048706-5.8862915-8.5809021-12.7405701c-3.1916809-9.6273804-3.4533081-12.505127-3.6887512-42.9987793
		l-0.2354431-28.2307129L410.053009,390.3857117z"/>
	<path class="st20" d="M235.5176544,188.8252106c-12.421402-0.1661224-28.7984009,0.4748383-37.4237823,1.6350861
		c-49.5338745,6.6630402-93.8511734,26.1691895-122.463829,53.8949738
		c-13.6248245,13.2062225-21.9022675,25.522995-26.3706245,39.2419891
		c-2.2681885,6.9667664-2.6135178,9.4887085-1.7776642,13.0675964
		c3.1830521,13.6221924,16.8570595,23.3829956,29.8082237,21.2743835c6.752243-1.0987549,11.1081085-4.6881104,17.5123978-14.438446
		c2.4225464-3.6887512,5.980484-8.7849731,7.9111938-11.3226013c18.019928-23.7126465,43.2106857-40.5631714,71.5591049-47.8726349
		c18.7027435-4.8215332,41.1230011-6.2551727,57.7197571-3.6887512
		c16.9420776,2.6187439,33.0025024,10.9485168,45.0367126,23.3542328
		c10.3206482,10.6424255,16.7929688,22.571991,19.9009399,36.6834106
		c1.2295837,5.5932922,1.2818909,17.3763733,0.0784912,22.7995911
		c-6.1086731,27.7624207-31.1005859,44.8562317-69.5132904,47.5508728l-5.6508484,0.392395v-1.9620972
		c-0.0052338-2.9378967-2.7861938-51.7261658-3.4794617-61.0552979c-1.2949982-17.4208374-3.2727814-27.312439-6.4592438-32.2935486
		c-3.6494904-5.7058105-10.7104492-10.6895447-19.6053009-13.84198c-3.4846954-1.2348022-4.6776428-1.331604-15.932251-1.3132935
		c-10.6816711,0.0209351-12.7301178,0.1805115-16.7694244,1.2923584
		c-9.9779205,2.7495728-18.7419739,8.8582458-21.8682556,15.2442322
		c-1.9150085,3.9111023-3.3643494,10.8334045-3.3643494,16.0682678c0,2.2184753,0.3845673,10.3782043,0.855484,18.1298218
		c1.5095062,24.8558655,2.5716553,45.9785156,4.9209442,97.8093872c3.6835175,81.2832642,4.2015076,90.0996094,5.5723724,95.2795715
		c1.148468,4.3166199,2.6972198,7.4298401,5.3447571,10.6737976c3.6390381,4.4997559,16.8714447,9.9413452,29.0757141,11.9557495
		c6.8934937,1.151123,19.1343842,0.7325439,25.1985931-0.8109741c2.5507355-0.6801758,6.8333435-2.3283691,9.5201111-3.6887817
		c5.4154053-2.7207642,7.4743042-5.0753174,9.9936371-11.3016968l1.344696-3.3224792l-0.1229553-27.2339478
		c-0.0680237-14.990448-0.45784-34.5852966-0.8685608-43.5586243l-0.7456055-16.3429871l3.7646179-0.3427124
		c21.5935669-1.9464111,35.5767975-5.0648193,52.4325409-11.6967468
		c39.5611877-15.5686035,70.5361938-45.562561,81.3408508-78.8057861
		c6.0432434-18.5483704,6.0955811-41.4918823,0.1307983-61.5863953
		c-9.9413147-33.598999-36.2857666-58.9754944-73.9711609-71.2477722
		c-13.3030396-4.3320618-25.8395691-6.7739563-41.9654083-8.1762085c-2.8280487-0.2456512-6.5298767-0.3890228-10.6685944-0.4444733
		L235.5176544,188.8252106z M593.1954346,265.5407104c-6.7757568,0.0287781-7.6390991,0.1674194-13.3945923,2.1347656
		c-7.2989502,2.4879456-15.2520752,6.3702698-21.5569458,10.5011597l-4.5258789,2.9745483l0.4185791,18.977417l0.4185791,18.9721985
		h-1.6220093c-5.9647827,0-22.4987183,3.3879089-37.2798462,7.6391296
		c-5.5200806,1.5879822-10.0982971,2.7992554-10.1767883,2.6919861c-0.0784912-0.1072388,0.0261536-8.2774353,0.2616272-18.1559448
		c0.4447327-18.8466187,0.0261536-32.2019958-1.0464172-34.2373657c-0.9156799-1.6874084-4.1858521-4.0785217-8.1100464-5.9176941
		c-3.0608826-1.4336243-3.8980408-1.5513611-10.5691528-1.538269c-6.6449585,0.015686-7.6914368,0.1726685-12.7405701,1.9150085
		c-9.496582,3.2753906-19.2547302,9.1486206-26.1613159,15.7386475l-3.9503479,3.7646179l1.0987549,11.5894775
		c1.8836365,19.5398865,3.6364441,43.7208252,3.2701721,44.7044678c-0.3139343,0.7901001-1.0726318,0.8816528-5.1276245,0.6069641
		c-5.4415894-0.368866-10.2290955-1.881012-15.0951233-4.7823181c-6.5664673-3.9111023-10.7261658-3.8927917-15.3566895,0.0732727
		c-4.0811462,3.5082397-4.4474182,4.6017761-4.3950806,13.852417c0.0261536,8.4344177,0.7325134,12.533905,3.1655273,18.1428833
		c0.9156799,2.1582947,1.9359741,3.2597046,4.7875366,5.1668396c7.377533,4.9680481,14.1794434,6.7313232,26.004364,6.7548828
		l7.9269104,0.015686l0.4185791,4.9444885c0.549408,6.4382935-0.6278992,37.4865723-1.8051453,47.5429688
		c-2.4068298,20.5366516-6.6449585,32.5708618-14.1271057,40.0007019
		c-6.0432434,6.0432434-10.9616089,7.1681824-17.3711243,3.9503479c-5.7816772-2.8777466-10.438385-9.8104858-13.6038818-20.2227173
		c-3.1916809-10.5429993-3.3225098-12.321991-3.8457336-48.0740662c-0.575531-41.6226807-0.8894653-44.1577148-5.7293091-46.6090393
		c-5.5985413-2.8411255-9.3657837-3.4637451-20.9029236-3.4846802c-11.9295654-0.0183411-16.7432556,0.750824-22.9173584,3.6678162
		c-3.5579224,1.6769409-7.1943665,5.140686-7.2466736,6.9092102c-0.0261536,0.5467529-0.2877808,2.4277649-0.6017151,4.1805725
		c-0.2877808,1.7528076-0.7848511,15.1762085-1.0464478,29.8343811c-0.549408,28.9579773-0.9679871,33.0653076-4.1596375,42.7188416
		c-4.4212952,13.3946228-10.621521,21.3999939-20.0134277,25.7950745
		c-3.1655273,1.4650574-3.9242249,1.5958557-10.9354553,1.5958557c-5.6508484,0-9.1826172-0.3400879-14.1663513-1.3865356
		c-3.8352661-0.7848511-7.584198-1.2295837-8.8922424-1.0464783c-4.7090454,0.6278687-7.0897217,5.1014709-6.660675,12.4789734
		c0.7848511,13.5777283,13.5829773,26.0828247,33.4865112,32.7016602c3.3486633,1.124939,8.0838318,2.3544922,10.5168457,2.7469482
		c12.138855,1.9359741,29.1437378-4.4474487,42.119751-15.8014526l3.6887512-3.217865l5.8862915,5.9124451
		c10.0459595,10.0721436,20.2227173,15.8276367,31.9168396,18.0251465
		c11.8510742,2.1975708,25.2718506-0.2615967,35.9979858-6.5664673c6.0432434-3.5579224,13.080658-9.496582,17.7112122-14.9381104
		c2.2760315-2.668457,4.1858521-4.8659973,4.2119751-4.8659973c0.0261536,0,2.9562683,2.7992554,6.4880066,6.2263794
		c10.2029114,9.9151306,19.9611206,15.1473694,32.1522827,17.2926331
		c9.2088013,1.5958252,19.2286072,0.3139038,28.8559265-3.7410278c8.5285645-3.5841064,19.5163574-12.3220215,25.795105-20.5628357
		c1.5958252-2.0928955,3.1131592-3.8195496,3.3486328-3.8195496c0.2354126-0.0261536,2.4329834,2.0667419,4.8921509,4.6305542
		c5.4154053,5.677002,10.2813721,9.6273804,16.4554443,13.3161011c17.083374,10.2813721,38.5095215,11.1185913,56.4823608,2.1975708
		c15.1473389-7.5083008,31.8383179-26.1875305,35.9194946-40.1576538
		c1.3603516-4.7090454,1.3603516-11.8772583-0.0261841-15.9060974c-2.4329834-7.1682129-9.7843628-10.9877625-16.6124268-8.6332703
		c-3.6364746,1.2557678-6.2002563,3.2963562-11.2232056,8.9995117
		c-11.7202759,13.3161316-19.9872437,17.6327515-26.9723511,14.0747986
		c-4.4997559-2.3021851-8.6593628-10.1767578-10.6999512-20.2750244c-0.8372192-4.1596375-0.9941406-8.0577087-0.9156494-25.4863586
		c0.0784302-19.9846497,0.9417725-50.3239441,1.4388428-50.8105774c0.1307983-0.1307983,5.1799316,2.2368164,11.2493896,5.2688904
		c13.8131714,6.9144287,17.1618042,8.1021729,21.9493408,7.7254639s6.43573-1.6769409,9.3919067-7.3408813
		c3.5579834-6.8333435,4.8399048-12.2304382,4.8921509-20.5968018c0.0523682-6.6476135-0.026123-7.0923462-1.6481323-10.0459595
		c-4.0811768-7.416748-23.1789551-22.7211304-35.8148804-28.6859131l-5.0753174-2.4068298l0.3139038-3.4742126
		c0.758667-8.4004211,1.5435181-23.9847107,1.6481934-32.4819336l0.1046143-9.2297058l-1.8051147-3.816925
		c-2.1190796-4.4919128-5.1538086-7.7280579-8.8425293-9.4364014c-2.276062-1.0516968-3.7149048-1.2269592-9.9151611-1.2008057
		V265.5407104z M557.2759399,368.7393188v25.1514893c0,26.0514526-0.4447021,34.3838501-2.3021851,42.8444214
		c-3.1393433,14.3887329-10.5953979,26.0567017-19.4378662,30.3471375
		c-2.5899658,1.2557678-4.4997559,1.7266541-7.5083008,1.8574524c-5.3630981,0.2354431-8.1884766-0.8371582-12.505127-4.8398438
		c-5.9647522-5.5462036-9.6011963-14.7026672-11.013916-27.8565979c-0.7063599-6.47229-0.9941406-60.1082764-0.3139343-60.7675171
		c0.6017151-0.6043396,12.8452454-3.0007324,23.2574158-4.54422c5.6508789-0.8397827,14.0748291-1.6194153,19.8303223-1.8286743
		l9.9936523-0.3636475H557.2759399z"/>
</g>
</svg>
