<svg xmlns="http://www.w3.org/2000/svg" viewBox="32 31 1990 898"><metadata xmlns:fl="https://football-logos.cc/czech-republic/chance-liga">dl1_13775c4bc8ef47ce10ba1c6e23d6a187d5e3bb95cad938ac3401b303994ce710</metadata><!-- Source: https://football-logos.cc --><path fill="#131F74" d="M843 448h49l29 3 31 6 22 6 18 6 21 9 21 11 4 3-2 9-14 35-22 56-3 7-5-2-12-9-14-8-25-10-23-6-27-4-14-1h-18l-19 2-21 5-19 7-16 9-13 10-8 7-11 14-8 15-6 17-4 20-1 7v35l3 20 4 15 8 20 10 16 11 12 7 7 10 7 14 8 16 6 17 4 16 2h25l21-3 21-6 17-8 13-9 6-5 9-11 10-15 9-19 6-18H855l1-5 21-57 11-30 2-3h227v15l-1 28-3 29-5 30-6 25-9 27-13 27-14 21-11 13-9 10-11 11-14 11-13 9-21 12-24 10-23 7-31 6-32 3h-35l-32-3-26-5-24-7-20-8-17-8-18-11-14-10-15-13-9-8-7-8-11-13-12-18-9-16-7-16-8-24-5-23-3-23-1-18v-14l2-29 4-24 6-22 7-19 8-17 11-18 10-13 11-13 15-15 11-9 15-11 15-9 19-10 23-9 27-8 23-5 22-3zM1280 458h167l3 5 17 41 20 49 18 44 19 46 15 37 19 46 15 37 19 46 20 49 18 44 7 17v2h-134l-4-8-16-42-15-39-208-1-3 10-16 42-14 36-2 2h-133l1-6 16-39 18-44 40-98 18-44 22-54 18-44 40-98 14-34zm84 101-11 28-21 55-15 39-18 47-1 5h132l-3-10-26-69-30-80-5-14zM200 31l28 1 27 4 26 7 24 9 9 5-1 8-14 47-2 2-9 1-17-6-21-5-7-1h-32l-16 4-16 8-12 11-9 14-6 18-2 14v18l3 18 5 13 6 11 9 10 10 7 12 6 14 4 14 2h20l19-3 23-6 21-8 19-9 13-8 1-191h111l1 1v91l15-9 17-8 21-6 14-2h19l15 2 15 5 11 6 10 9 7 9 6 13 4 15 1 8v159H495l-1-4-1-144-4-8-7-4h-12l-14 7-3 3h-2v150H339l-1-32-25 13-20 8-26 8-26 5-17 2h-39l-23-3-26-6-21-8-19-10-14-10-10-9-10-10-11-16-8-15-7-21-3-15-1-8v-41l3-18 6-20 6-14 10-16 13-15 11-10 18-12 23-11 19-6 23-5 16-2zM1333 103h25l26 3 25 6 22 8 9 5-2 9-11 35-3 3-5 1-21-7-17-3h-21l-15 4-10 6-6 5-7 11-4 11-2 12v12l3 16 7 14 5 6 10 7 13 5 10 2h24l20-4 18-6 19-9 3-1-3-11-2-13v-23l3-17 5-15 7-14 9-12 8-9 14-11 15-9 20-8 19-5 18-3 12-1h27l26 3 19 5 15 6 14 8 14 11 8 9 9 14 6 13 5 19 2 19v11l-1 16-1 3-159 1 4 13 4 6 8 7 13 5 11 2h32l27-4 24-7 8-1 3 1 6 16 9 27-1 3-19 9-19 6-22 5-20 3-11 1h-43l-23-3-21-5-19-7-17-9-12-9-4-1-25 13-23 9-21 6-21 4-18 2h-40l-23-3-21-5-19-7-17-9-10-8-10-9-10-13-8-16-5-17-2-12v-31l3-17 5-15 7-14 11-14 7-7 14-10 17-9 21-7 25-5zm248 57-10 4-6 5-6 10-4 13v2l6 1h50l2-4-2-13-4-8-5-5-5-3-6-2z" data-source="https://football-logos.cc"></path><path fill="#142074" d="M64 458h45l78 1v353h208l-1 7-16 45-14 38-7 18-1 1H64l-1-1V459z" data-source="https://football-logos.cc"></path><path fill="#131F74" d="M435 458h44l79 1v462H435zM1096 103h19l14 2 16 5 13 8 8 7 9 14 6 16 2 11 1 13v150h-112l-1-146-3-8-6-5-3-1h-11l-10 4-9 7-1 149H917V107h91l12 25 5-2 14-9 19-9 15-5 14-3zM754 103h30l21 2 22 5 15 6 13 8 10 9 7 8 8 15 4 15 1 7v151h-91l-11-23h-2l-15 10-16 8-18 6-16 3h-28l-15-3-14-5-10-6-10-9-6-7-6-12-3-11-1-8v-12l3-16 5-12 9-12 7-7 14-9 15-6 15-4 21-3h33l29 3-1-13-3-8-5-5-9-4-9-2h-27l-26 4-22 6-9-1-3-7-11-36 1-4 22-8 24-6 23-4 18-2zm-13 131-10 4-7 6-3 9 1 9 5 7 8 4 4 1h10l13-4 9-5 3-3v-26l-5-2zM1708 424l5 1 97 62 23 15 1 2-21 82-15 58-2 3-57 4-89 6-4-8-22-57-18-46-10-26 2-4 26-22 11-9 13-11 11-9 13-11 11-9 14-12zM1972 660l2 1 7 37-1 7-7 13-11 15-11 13-22 22-11 9-15 12-21 14-18 10-20 8-4 1h-7l-35-14 1-5 17-33 10-19 12-23 10-19 7-12 10-4 58-18zM1908 348l16 1 25 3 8 7 7 7 13 18 12 21 10 21 10 26 8 27 4 22 1 9v17l-11 14-12 15-4 4-87-87z" data-source="https://football-logos.cc"></path><!-- source: https://football-logos.cc --></svg>